<svg id="SvgjsSvg1115" width="288" height="288" xmlns="http://www.w3.org/2000/svg" version="1.1" xmlns:xlink="http://www.w3.org/1999/xlink" xmlns:svgjs="http://svgjs.com/svgjs"><defs id="SvgjsDefs1116"></defs><g id="SvgjsG1117"><svg xmlns="http://www.w3.org/2000/svg" fill-rule="evenodd" clip-rule="evenodd" image-rendering="optimizeQuality" shape-rendering="geometricPrecision" text-rendering="geometricPrecision" viewBox="0 0 80 80" width="288" height="288"><path d="M40 8c4.205,0 7.614,3.409 7.614,7.614 0,4.205 -3.409,7.614 -7.614,7.614 -4.205,0 -7.614,-3.409 -7.614,-7.614 0,-4.205 3.409,-7.614 7.614,-7.614zm0 24.386c4.205,0 7.614,3.409 7.614,7.614 0,4.205 -3.409,7.614 -7.614,7.614 -4.205,0 -7.614,-3.409 -7.614,-7.614 0,-4.205 3.409,-7.614 7.614,-7.614zm-24.386 0c4.205,0 7.613,3.409 7.613,7.614 0,4.205 -3.408,7.614 -7.613,7.614 -4.205,0 -7.614,-3.409 -7.614,-7.614 0,-4.205 3.409,-7.614 7.614,-7.614zm48.772 0c4.205,0 7.614,3.409 7.614,7.614 0,4.205 -3.409,7.614 -7.614,7.614 -4.205,0 -7.613,-3.409 -7.613,-7.614 0,-4.205 3.408,-7.614 7.613,-7.614zm-24.386 24.386c4.205,0 7.614,3.409 7.614,7.614 0,4.205 -3.409,7.614 -7.614,7.614 -4.205,0 -7.614,-3.409 -7.614,-7.614 0,-4.205 3.409,-7.614 7.614,-7.614zm-24.386 0c4.205,0 7.613,3.409 7.613,7.614 0,4.205 -3.408,7.614 -7.613,7.614 -4.205,0 -7.614,-3.409 -7.614,-7.614 0,-4.205 3.409,-7.614 7.614,-7.614zm48.772 0c4.205,0 7.614,3.409 7.614,7.614 0,4.205 -3.409,7.614 -7.614,7.614 -4.205,0 -7.613,-3.409 -7.613,-7.614 0,-4.205 3.408,-7.614 7.613,-7.614zm-48.772 -48.772c4.205,0 7.613,3.409 7.613,7.614 0,4.205 -3.408,7.614 -7.613,7.614 -4.205,0 -7.614,-3.409 -7.614,-7.614 0,-4.205 3.409,-7.614 7.614,-7.614zm48.772 0c4.205,0 7.614,3.409 7.614,7.614 0,4.205 -3.409,7.614 -7.614,7.614 -4.205,0 -7.613,-3.409 -7.613,-7.614 0,-4.205 3.408,-7.614 7.613,-7.614z" fill="#ffffff" class="color000 svgShape"></path></svg></g></svg>