<svg xmlns="http://www.w3.org/2000/svg" enable-background="new 0 0 40 40" viewBox="0 0 40 40" id="screenshot"><switch><g><path fill="#0284fe" d="M16,32v4h-4c-4.4,0-8-3.6-8-8v-4h4v4c0,2.2,1.8,4,4,4H16z"></path><path fill="#ff4131" d="M16,4v4h-4c-2.2,0-4,1.8-4,4v4H4v-4c0-4.4,3.6-8,8-8H16z"></path><path fill="#fdbd04" d="M36,12v4h-4v-4c0-2.2-1.8-4-4-4h-4V4h4C32.4,4,36,7.6,36,12z"></path><circle cx="20" cy="20" r="6" fill="#0284fe"></circle><circle cx="30.5" cy="30.5" r="3.5" fill="#03a846"></circle></g></switch></svg>