<svg xmlns="http://www.w3.org/2000/svg" enable-background="new 0 0 40 40" viewBox="0 0 40 40" id="voice"><switch><g><path fill="#0284fe" d="M20,25L20,25c-2.8,0-5-2.2-5-5V9c0-2.8,2.2-5,5-5h0c2.8,0,5,2.2,5,5v11C25,22.8,22.8,25,20,25z"></path><rect width="3" height="7" x="18.5" y="29" fill="#03a846"></rect><path fill="#fdbd04" d="M14.3,25.7l-2.1,2.1C10.2,25.8,9,23,9,20h3C12,22.2,12.9,24.2,14.3,25.7z"></path><path fill="#ff4131" d="M31,20c0,6.1-4.9,11-11,11c-3,0-5.8-1.2-7.8-3.2l2.1-2.1c1.4,1.4,3.4,2.3,5.7,2.3c4.4,0,8-3.6,8-8H31z"></path></g></switch></svg>