<svg id="SvgjsSvg1140" width="288" height="288" xmlns="http://www.w3.org/2000/svg" version="1.1" xmlns:xlink="http://www.w3.org/1999/xlink" xmlns:svgjs="http://svgjs.com/svgjs"><defs id="SvgjsDefs1141"></defs><g id="SvgjsG1142"><svg xmlns="http://www.w3.org/2000/svg" viewBox="0 0 32 32" width="288" height="288"><path d="M3 8c.6 0 1-.4 1-1V4h3c.6 0 1-.4 1-1s-.4-1-1-1H3c-.6 0-1 .4-1 1v4c0 .6.4 1 1 1zm0 22h4c.6 0 1-.4 1-1s-.4-1-1-1H4v-3c0-.6-.4-1-1-1s-1 .4-1 1v4c0 .6.4 1 1 1zM29 2h-4c-.6 0-1 .4-1 1s.4 1 1 1h3v3c0 .6.4 1 1 1s1-.4 1-1V3c0-.6-.4-1-1-1zm0 22c-.6 0-1 .4-1 1v3h-3c-.6 0-1 .4-1 1s.4 1 1 1h4c.6 0 1-.4 1-1v-4c0-.6-.4-1-1-1zm-13-4c2.2 0 4-1.8 4-4s-1.8-4-4-4-4 1.8-4 4 1.8 4 4 4zm0-6c1.1 0 2 .9 2 2s-.9 2-2 2-2-.9-2-2 .9-2 2-2z" fill="#174ae4" class="color000 svgShape"></path></svg></g></svg>