<svg id="SvgjsSvg1155" width="288" height="288" xmlns="http://www.w3.org/2000/svg" version="1.1" xmlns:xlink="http://www.w3.org/1999/xlink" xmlns:svgjs="http://svgjs.com/svgjs"><defs id="SvgjsDefs1156"></defs><g id="SvgjsG1157"><svg xmlns="http://www.w3.org/2000/svg" viewBox="0 0 16 16" width="288" height="288"><path d="M1.5 4a.5.5 0 0 0-.5.5v8a.5.5 0 0 0 .5.5h14a.5.5 0 0 0 .5-.5v-8a.5.5 0 0 0-.5-.5h-14zM2 5h13v7H2V5zm1 1v1h1V6H3zm2 0v1h1V6H5zm2 0v1h1V6H7zm2 0v1h1V6H9zm2 0v1h1V6h-1zm2 0v1h1V6h-1zM4 8v1h1V8H4zm2 0v1h1V8H6zm2 0v1h1V8H8zm2 0v1h1V8h-1zm2 0v1h1V8h-1zm-9 2v1h11v-1H3z" color="#000" font-family="sans-serif" font-weight="400" overflow="visible" style="line-height:normal;text-indent:0;text-align:start;text-decoration-line:none;text-decoration-style:solid;text-decoration-color:#000;text-transform:none;block-progression:tb;white-space:normal;isolation:auto;mix-blend-mode:normal;solid-color:#000;solid-opacity:1" fill="#174ae4" class="color000 svgShape"></path></svg></g></svg>