<svg xmlns="http://www.w3.org/2000/svg" viewBox="0 0 512 512" id="leaf"><g data-name="Layer 16"><path fill="#347242" d="M324.248 309.3a153.136 153.136 0 0 1 13.486 9.172l-3.358-2.562a158.457 158.457 0 0 1 28.954 29.04l-2.563-3.358a167.558 167.558 0 0 1 21.9 38.376l-1.537-3.782a163.259 163.259 0 0 1 10.1 37.007c.089.608.484 3.588.115.692s0 .087.071.7q.281 2.506.479 5.019.366 4.639.447 9.3a149.45 149.45 0 0 1-.941 19.385c-.423 3.744 2.077 8.6 4.612 11.134a16.027 16.027 0 0 0 11.134 4.611c4.07-.174 8.3-1.513 11.134-4.611 2.993-3.274 4.117-6.756 4.612-11.134 5.706-50.474-13.966-102.767-48.914-139.142a168.4 168.4 0 0 0-34.179-27.241c-7.052-4.263-17.675-1.512-21.472 5.92a16.067 16.067 0 0 0 5.919 21.472Z"></path><rect width="183.775" height="378.236" x="156.887" y="19.486" fill="#66af3f" rx="91.888" transform="rotate(-45 248.775 208.604)"></rect><path fill="#347242" d="M294.866 254.7a91.889 91.889 0 0 1-129.949 0l87.635 87.634a91.887 91.887 0 0 0 129.949 0 91.889 91.889 0 0 0 0-129.949l-87.635-87.634a91.887 91.887 0 0 1 0 129.949Z"></path><path fill="#85db53" d="M115.048 74.877a91.887 91.887 0 0 0 0 129.949l27.209 27.21a91.889 91.889 0 0 1 0-129.949 91.889 91.889 0 0 1 129.949 0L245 74.877a91.889 91.889 0 0 0-129.952 0Z"></path><ellipse cx="248.774" cy="208.604" fill="#347242" rx="17.473" ry="112.963" transform="rotate(-45 248.775 208.604)"></ellipse><circle cx="235.702" cy="104.859" r="11.346" fill="#85db53"></circle><circle cx="206.632" cy="96.143" r="7.686" fill="#85db53"></circle></g></svg>