<svg id="SvgjsSvg1083" width="288" height="288" xmlns="http://www.w3.org/2000/svg" version="1.1" xmlns:xlink="http://www.w3.org/1999/xlink" xmlns:svgjs="http://svgjs.com/svgjs"><defs id="SvgjsDefs1084"></defs><g id="SvgjsG1085"><svg xmlns="http://www.w3.org/2000/svg" fill="none" viewBox="0 0 24 24" width="288" height="288"><path fill="#ffffff" fill-rule="evenodd" d="M5.5 4A2.5 2.5 0 0 1 8 1.5h8A2.5 2.5 0 0 1 18.5 4v16a2.5 2.5 0 0 1-2.5 2.5H8A2.5 2.5 0 0 1 5.5 20V4ZM8 2.5A1.5 1.5 0 0 0 6.5 4v16A1.5 1.5 0 0 0 8 21.5h8a1.5 1.5 0 0 0 1.5-1.5V4A1.5 1.5 0 0 0 16 2.5H8Z" clip-rule="evenodd" class="color000 svgShape"></path><path fill="#ffffff" fill-rule="evenodd" d="M13.5 20h-3v-1h3v1Z" clip-rule="evenodd" class="color000 svgShape"></path></svg></g></svg>