<svg id="SvgjsSvg1046" width="288" height="288" xmlns="http://www.w3.org/2000/svg" version="1.1" xmlns:xlink="http://www.w3.org/1999/xlink" xmlns:svgjs="http://svgjs.com/svgjs"><defs id="SvgjsDefs1047"></defs><g id="SvgjsG1048"><svg xmlns="http://www.w3.org/2000/svg" fill-rule="evenodd" stroke-linejoin="round" stroke-miterlimit="2" clip-rule="evenodd" viewBox="0 0 24 24" width="288" height="288"><path d="M201.38,245L199,245C198.448,245 198,245.448 198,246C198,246 198,246.937 198,248C198,249.061 198.421,250.078 199.172,250.828C199.922,251.579 200.939,252 202,252L202.995,252C203.693,253.21 204.999,254 206.459,254L207,254L207,257L206,257C205.204,257 204.441,257.316 203.879,257.879C203.316,258.441 203,259.204 203,260C203,260.496 203,260.987 203,260.987L204,262L212,262C212,262 213,261.923 213,260.987L213,260C213,259.204 212.684,258.441 212.121,257.879C211.559,257.316 210.796,257 210,257L209,257L209,254L209.54,254C211.001,254 212.306,253.21 213.005,252L214,252C215.061,252 216.078,251.579 216.828,250.828C217.579,250.078 218,249.061 218,248L218,246C218,245.448 217.552,245 217,245L214.619,245L214.981,243.19C215.039,242.896 214.963,242.591 214.773,242.36C214.583,242.128 214.299,241.994 213.999,241.994L201.999,242C201.7,242 201.416,242.135 201.226,242.366C201.037,242.598 200.961,242.902 201.019,243.196L201.38,245ZM211,260L205,260C205,259.735 205.105,259.48 205.293,259.293C205.48,259.105 205.735,259 206,259C206,259 210,259 210,259C210.265,259 210.52,259.105 210.707,259.293C210.895,259.48 211,259.735 211,260ZM212.78,243.994L211.502,250.392C211.315,251.327 210.494,252 209.54,252C209.54,252 206.459,252 206.459,252C205.506,252 204.685,251.327 204.498,250.392L203.22,243.999L212.78,243.994ZM201.78,247C201.261,247 200,247 200,247C200,247 200,248 200,248C200,248.53 200.211,249.039 200.586,249.414C200.961,249.789 201.47,250 202,250L202.38,250L201.78,247ZM214.219,247L213.619,250L214,250C214.53,250 215.039,249.789 215.414,249.414C215.789,249.039 216,248.53 216,248C216,248 216,247 216,247L214.219,247Z" transform="translate(-196 -240)" fill="#ffffff" class="color000 svgShape"></path></svg></g></svg>